<svg width="631" height="309" viewBox="0 0 631 309" fill="none" xmlns="http://www.w3.org/2000/svg">
<path d="M569.05 212.98H457.72C456.98 212.98 456.38 212.38 456.38 211.64V60.31C456.38 59.57 455.78 58.97 455.04 58.97H415.1C414.36 58.97 413.76 59.57 413.76 60.31V247.78C413.76 248.52 414.36 249.12 415.1 249.12H569.04C569.78 249.12 570.38 248.52 570.38 247.78V214.32C570.39 213.58 569.79 212.98 569.05 212.98Z" fill="#E5B200"/>
<path d="M492.91 170.71H567.1C567.84 170.71 568.44 170.11 568.44 169.37V128.9C568.44 128.16 567.84 127.56 567.1 127.56H533.05C532.31 127.56 531.71 126.96 531.71 126.22V60.31C531.71 59.57 531.11 58.97 530.37 58.97H492.91C492.17 58.97 491.57 59.57 491.57 60.31V169.37C491.57 170.11 492.17 170.71 492.91 170.71Z" fill="#E5B200"/>
<path d="M381.88 61.64C381.88 60.15 380.67 58.94 379.18 58.94H299.21C299.11 58.94 299.01 58.95 298.91 58.97H298.3C297.28 58.97 296.37 59.63 296.06 60.6L254.61 188.84C254.31 189.78 252.99 189.78 252.68 188.85L210 60.59C209.68 59.63 208.78 58.98 207.76 58.98H179.12C178.55 58.98 178.04 59.34 177.86 59.88L133.66 186.69C133.34 187.62 132.02 187.6 131.73 186.66L92.12 60.62C91.81 59.64 90.9 58.97 89.87 58.97H50.12C48.5 58.97 47.37 60.56 47.89 62.09L111.52 248.22C111.71 248.76 112.21 249.13 112.79 249.13H146.76C147.33 249.13 147.83 248.77 148.02 248.24L191.75 125.08C192.07 124.17 193.36 124.18 193.67 125.09L236.39 248.23C236.58 248.77 237.08 249.13 237.65 249.13H272.16C272.73 249.13 273.24 248.77 273.43 248.23C273.43 248.23 313.48 137.91 327.49 99.25C327.64 98.85 328.02 98.59 328.44 98.59H337.71C338.27 98.59 338.73 99.05 338.73 99.61V246.75C338.73 248.07 339.8 249.14 341.12 249.14H379.65C380.97 249.14 382.04 248.07 382.04 246.75V62.24C382.02 62.03 381.97 61.83 381.88 61.64Z" fill="#E5B200"/>
</svg>
